<svg width="43" height="42" viewBox="0 0 43 42" fill="none" xmlns="http://www.w3.org/2000/svg">
<circle cx="15" cy="15" r="14" stroke="white" stroke-width="2"/>
<path d="M24.5 15C24.5 20.2467 20.2467 24.5 15 24.5C9.75329 24.5 5.5 20.2467 5.5 15C5.5 9.7533 9.75329 5.5 15 5.5C20.2467 5.5 24.5 9.7533 24.5 15Z" stroke="white" stroke-width="2"/>
<path d="M24.4876 27.7171C24.0959 27.3281 23.7583 26.9922 23.4897 26.7248L26.8608 23.446C27.0533 23.6277 27.2809 23.8428 27.5389 24.087C28.4094 24.911 29.626 26.067 31.0103 27.3948C33.7809 30.0522 37.2152 33.3902 39.8901 36.1303C39.9698 36.212 40.0722 36.3946 39.9151 36.858C39.7582 37.321 39.3876 37.875 38.8743 38.374C38.3615 38.8727 37.788 39.237 37.3038 39.3945C36.8163 39.553 36.6136 39.4559 36.5231 39.3759C34.9327 37.9696 31.5101 34.6439 28.4628 31.6468C26.9441 30.1531 25.5261 28.7485 24.4876 27.7171Z" stroke="white" stroke-width="2"/>
</svg>
