<svg width="62" height="62" viewBox="0 0 62 62" fill="none" xmlns="http://www.w3.org/2000/svg">
<circle cx="31" cy="31" r="30.75" fill="white" stroke="#969355" stroke-width="0.5"/>
<path d="M34.0041 6L37.1472 8.00895L19.3065 46.9904L15.4578 46.9911L34.0041 6Z" fill="#E17031"/>
<path d="M46.25 37.8443V34.0307L55.2283 28.6916L35.9891 17.2506L38.5543 14.9625L61 28.6916L46.25 37.8443Z" fill="#E17031"/>
<path d="M24.4457 14.9625L26.3696 18.0135L7.77174 29.4544L23.8043 37.0817L19.9565 39.3699L2 29.4544L24.4457 14.9625Z" fill="#E17031"/>
<path d="M15.4674 46.529C16.7499 45.7663 25.177 40.4023 32.1413 40.8953C38.1829 41.323 45.6641 46.1013 46.25 46.529C46.8913 46.9972 44.326 48.349 43.6847 48.0544C43.0435 47.7599 36.891 44.1174 32.1413 43.9462C26.9143 43.7578 20.2757 47.6208 19.3152 48.0544C18.3547 48.4881 14.1848 47.2916 15.4674 46.529Z" fill="#E17031"/>
<path d="M16.234 46.6674C17.4701 46.0391 25.592 41.6201 32.304 42.0263C38.1268 42.3787 45.337 46.3151 45.9016 46.6674C46.5197 47.0531 44.0474 48.1668 43.4293 47.9241C42.8113 47.6815 36.8816 44.6807 32.304 44.5397C27.2663 44.3845 20.8682 47.5669 19.9425 47.9241C19.0168 48.2813 14.9979 47.2957 16.234 46.6674Z" fill="#D1662A"/>
<rect x="9.05435" y="33.2679" width="1.28261" height="13.7291" fill="#E17031"/>
<rect x="7.77173" y="42.4207" width="5.13043" height="6.10184" fill="#E17031"/>
<path d="M30.8587 27.1662V25.6407L32.1413 24.1153H37.2717L39.837 25.6407H42.4022L46.25 28.6917V46.9972L35.9891 41.6581V28.6917H30.8587V27.1662Z" fill="#E17031"/>
<path d="M34.0033 6.00388L34.7615 6.48848L17.4846 45.0339L15.8103 46.2142L34.0033 6.00388Z" fill="#D1662A"/>
<path d="M8 42H9V49H8V45.5V42Z" fill="#D1662A"/>
</svg>
